<?xml version="1.0" encoding="UTF-8"?>
<!DOCTYPE svg PUBLIC "-//W3C//DTD SVG 1.0//EN" "http://www.w3.org/TR/2001/REC-SVG-20010904/DTD/svg10.dtd">
<!-- Creator: CorelDRAW 2019 (64 Bit Versão de avaliação) -->
<svg xmlns="http://www.w3.org/2000/svg" xml:space="preserve" width="908px" height="443px" version="1.0" style="shape-rendering:geometricPrecision; text-rendering:geometricPrecision; image-rendering:optimizeQuality; fill-rule:evenodd; clip-rule:evenodd"
viewBox="0 0 908 443"
 xmlns:xlink="http://www.w3.org/1999/xlink">
 <defs>
  <style type="text/css">
   <![CDATA[
    .fil0 {fill:#FF9D00;fill-rule:nonzero}
   ]]>
  </style>
 </defs>
 <g id="Camada_x0020_1">
  <metadata id="CorelCorpID_0Corel-Layer"/>
  <path class="fil0" d="M480 443c-2,0 -4,0 -6,0 -3,-1 -5,-2 -6,-4 -3,-4 -5,-10 -5,-19 0,-1 0,-2 0,-5 0,-3 0,-7 1,-12 1,-5 2,-10 3,-14 1,-5 3,-9 6,-14 3,-4 6,-7 9,-10 3,-3 7,-4 11,-4 4,0 7,1 10,3 2,2 4,4 5,7 1,3 2,6 2,10 0,11 -2,23 -6,35 -1,4 -3,8 -5,11 -4,9 -10,14 -16,16 -1,0 -3,1 -4,1l0 0zm-283 -400c-1,2 -1,4 -2,6 -1,2 -1,3 -1,5 -9,25 -16,50 -19,77 -3,25 -5,49 -7,74 -2,27 -4,54 -8,80 -2,11 -4,21 -7,32 -3,11 -7,21 -13,31 -11,18 -27,30 -49,34 -25,5 -48,0 -68,-15 -10,-7 -16,-17 -20,-29 -4,-12 -4,-24 -2,-36 0,0 0,0 0,-1 1,-4 2,-7 3,-11 1,-4 4,-7 7,-10 2,-2 4,-1 6,0 2,1 3,3 3,5 1,7 3,14 3,21 0,6 1,12 2,18 1,6 3,11 5,16 2,5 6,10 12,12 5,2 11,2 16,0 5,-2 10,-5 14,-9 7,-7 12,-15 15,-24 3,-9 6,-17 8,-26 6,-28 9,-55 10,-83 0,-2 0,-4 0,-5 1,-13 2,-27 2,-40 1,-30 3,-61 7,-91 1,-8 2,-15 4,-23 -16,3 -33,5 -50,5 -5,0 -11,-1 -17,-2 -6,-1 -12,-4 -17,-8 -7,-6 -12,-14 -15,-23 -1,-4 0,-7 2,-9 2,-2 4,-4 7,-5 8,-3 16,-5 25,-6 0,0 0,0 0,0 31,-3 60,-2 90,0 17,1 33,4 50,9 8,2 15,7 20,14 2,2 2,5 3,8 0,3 0,5 -2,6 -2,2 -4,2 -6,3 -2,0 -4,0 -7,0 -1,0 -3,0 -4,0 0,0 -1,0 -1,0l0 0zm48 318c-7,0 -13,0 -20,-2 -9,-3 -15,-7 -21,-14 -11,-12 -16,-32 -17,-59 0,-2 0,-7 0,-15 0,-8 1,-20 4,-34 2,-14 6,-28 11,-42 5,-14 12,-27 21,-38 8,-10 19,-19 31,-25 12,-6 24,-9 37,-9 13,1 23,5 32,12 7,6 13,13 16,22 3,9 5,18 5,28 1,33 -6,65 -19,97 -5,11 -10,21 -16,32 -15,24 -32,39 -52,45 -4,1 -8,2 -12,2l0 0zm24 -35c1,0 3,-1 4,-2 6,-5 10,-11 13,-18 0,0 0,0 0,0 10,-21 18,-42 23,-64 4,-15 6,-30 6,-45 0,-8 -1,-17 -3,-25 -3,-13 -9,-22 -18,-25 -1,0 -1,0 -2,0 -2,0 -5,1 -7,3 -2,2 -5,4 -6,7 -9,14 -15,29 -19,45 -6,24 -10,48 -9,73 0,5 0,10 1,15 1,6 2,12 3,18 1,6 4,11 7,16 2,2 4,4 6,4l0 0zm129 -53c-2,12 -3,24 -3,36 0,2 -1,5 0,8 0,7 -1,15 -5,21 -2,4 -5,6 -9,7 -4,1 -7,1 -10,0 -5,-1 -8,-3 -11,-7 -3,-4 -5,-8 -6,-14 -2,-10 -3,-19 -3,-30 0,-10 1,-21 2,-31 2,-27 5,-54 9,-81 4,-27 8,-53 13,-79 1,-3 1,-6 2,-9 3,-21 8,-42 15,-62 1,-3 3,-7 6,-10 2,-3 5,-4 9,-5 0,0 1,0 1,0 0,0 0,0 0,0 10,3 17,9 21,19 3,8 4,17 4,26 0,9 -1,18 -2,27 -4,30 -10,61 -16,92 -1,3 -1,7 -2,10 2,-2 3,-4 5,-6 9,-11 18,-20 29,-28 6,-5 12,-9 19,-12 7,-3 13,-5 20,-6 3,0 6,1 8,3 2,2 3,5 2,9 -1,3 -2,7 -5,9 -4,3 -8,6 -12,8 -3,2 -6,3 -9,6 -13,10 -25,21 -36,34 -8,8 -16,17 -24,24 1,0 3,1 4,1 9,3 17,7 24,11 6,4 11,9 15,16 4,6 7,13 9,21 2,5 3,10 5,16 2,11 6,21 12,30 1,2 2,3 2,5 0,2 -1,4 -3,5 -5,3 -10,3 -15,2 -5,-1 -10,-3 -13,-6 -7,-7 -13,-15 -18,-24 -3,-5 -5,-9 -9,-14 -6,-9 -14,-16 -22,-23l0 0zm134 66c-15,1 -27,-4 -38,-15 -10,-10 -15,-25 -16,-46 0,-3 0,-6 0,-8 2,-30 9,-58 23,-85 8,-15 18,-27 31,-35 12,-9 25,-13 39,-13 4,0 9,1 12,3 11,5 17,15 19,30 0,1 0,2 0,2 0,8 -1,15 -4,23 -3,8 -7,15 -12,21 -8,9 -18,17 -28,23 -10,6 -21,12 -32,17 -2,10 -3,21 -2,31 0,13 5,22 12,26 1,1 3,1 5,1 2,0 5,-1 8,-3 3,-2 6,-5 9,-8 7,-9 12,-18 14,-29 1,-2 1,-5 2,-7 1,-2 3,-4 5,-4 2,0 4,1 6,3 3,3 4,7 4,13 0,3 -1,7 -2,11 -1,4 -3,9 -6,13 -6,9 -12,16 -19,23 -10,9 -20,14 -30,14l0 0zm-2 -110c21,-10 35,-20 44,-31 4,-5 7,-11 8,-18 0,-1 0,-2 0,-4 0,-2 -1,-5 -2,-8 -1,-3 -4,-4 -8,-5 0,0 -1,0 -1,0 -7,0 -13,4 -19,13 -10,16 -17,33 -22,52l0 0zm123 -61c2,-3 3,-6 5,-8 3,-5 6,-9 10,-13 4,-4 8,-6 13,-6 5,0 9,1 12,4 7,5 12,12 15,21 3,9 5,18 6,28 0,9 -1,18 -2,28 -2,9 -4,18 -6,28 -1,3 -2,7 -2,10 -3,14 -6,27 -7,41 0,2 0,3 0,5 0,3 0,5 -1,7 0,2 -1,5 -3,7 -2,2 -4,3 -6,3 -2,0 -4,-1 -5,-3 -3,-4 -6,-9 -7,-15 -1,-6 -2,-12 -2,-18 0,-21 1,-42 4,-64 1,-7 1,-13 2,-20 0,-2 0,-4 1,-7 1,-7 1,-15 1,-22 0,0 0,-1 0,-1 0,0 0,-1 0,-1 0,0 0,-1 0,-1 0,0 -1,0 -1,0 -6,7 -11,15 -16,24 -9,20 -17,41 -21,64 -5,23 -7,42 -7,54 0,3 0,6 -2,9 -1,3 -3,5 -5,6 -8,3 -15,1 -20,-4 -4,-4 -5,-9 -6,-15 -1,-6 -2,-12 -1,-17 1,-27 4,-54 8,-81 0,-2 1,-4 1,-6 2,-16 6,-32 10,-47 1,-3 3,-6 5,-9 2,-3 5,-5 8,-5 1,0 2,0 3,0 3,1 6,2 9,3 3,2 5,4 7,7 3,4 4,9 4,15l0 0zm140 9c-1,0 -1,0 -2,1 -5,5 -8,10 -11,17 0,0 0,1 0,1 -8,21 -15,43 -20,65 -1,5 -2,11 -3,16 0,3 -1,6 -2,9 1,1 3,2 5,3 2,1 4,1 6,0 3,-1 4,-4 6,-7 2,-3 3,-6 4,-9 0,0 1,-1 1,-1 7,-21 13,-41 17,-63 1,-7 2,-14 2,-22 0,0 0,-1 0,-1 0,-2 0,-4 0,-5 0,-2 -1,-3 -2,-4l0 0zm-42 134c0,1 0,1 0,2 -3,22 -5,44 -6,66 0,2 0,3 0,5 0,6 -1,11 -3,16 -1,3 -3,5 -6,6 -2,1 -5,1 -7,0 -3,-1 -6,-2 -8,-5 -2,-3 -3,-6 -4,-11 -1,-8 -2,-16 -2,-24 0,-8 0,-16 1,-25 1,-22 3,-44 5,-66 2,-22 5,-43 8,-65 0,-2 1,-5 1,-7 2,-16 5,-32 9,-48 1,-3 2,-5 4,-8 2,-2 4,-4 6,-4 0,0 0,0 1,0 7,2 12,6 15,14 2,6 3,13 3,20 0,4 0,8 0,12 4,-9 8,-17 12,-25 3,-5 6,-9 10,-12 4,-3 8,-6 12,-6 9,0 16,6 20,16 3,6 4,13 4,20 0,7 0,15 0,22 -2,22 -7,44 -14,65 -3,9 -7,17 -13,24 -5,7 -12,13 -19,17 -10,6 -20,5 -28,-2l0 0zm110 6c-3,0 -7,0 -10,-2 -4,-2 -8,-5 -11,-10 -6,-9 -9,-23 -10,-42 0,-1 0,-5 0,-11 0,-6 0,-14 1,-24 1,-10 2,-20 5,-30 2,-10 5,-19 10,-28 4,-8 9,-14 15,-18 6,-5 12,-7 19,-6 7,0 12,3 17,9 4,4 7,10 9,16 2,6 3,13 4,20 1,24 -2,47 -8,71 -2,8 -5,15 -8,23 -7,17 -16,28 -26,32 -2,1 -4,1 -6,1l0 0zm11 -25c1,0 1,0 2,-1 3,-4 5,-8 6,-13 0,0 0,0 0,0 5,-15 8,-30 11,-46 2,-11 2,-22 2,-33 0,-6 -1,-12 -2,-18 -2,-10 -5,-16 -10,-18 0,0 -1,0 -1,0 -1,0 -3,1 -4,2 -1,1 -2,3 -3,5 -4,10 -7,21 -9,32 -3,17 -4,35 -3,52 0,4 0,7 1,11 0,4 1,9 2,13 1,4 2,8 4,11 1,2 2,3 3,3l0 0zm-384 139c0,0 1,0 1,-1 2,-2 3,-4 4,-6 0,0 0,0 0,0 3,-7 6,-15 7,-23 1,-5 2,-11 2,-16 0,-3 0,-6 -1,-9 -1,-5 -3,-7 -6,-8 0,0 0,0 -1,0 -1,0 -2,0 -2,1 -1,1 -1,2 -2,3 -3,5 -4,10 -5,16 -2,8 -3,17 -2,25 0,2 0,3 0,5 0,2 1,4 1,6 0,2 1,4 2,5 1,1 1,1 2,1l0 0zm47 -61c1,-1 1,-2 2,-4 1,-2 3,-4 4,-6 2,-2 4,-3 6,-3 2,0 4,0 6,1 3,2 5,5 7,8 2,3 3,7 3,11 0,4 0,8 -1,12 -1,4 -2,8 -3,12 0,1 -1,3 -1,4 -2,6 -3,11 -3,17 0,1 0,1 0,2 0,1 0,2 0,3 0,1 -1,2 -1,3 -1,1 -2,1 -3,1 -1,0 -2,0 -2,-1 -1,-2 -2,-4 -3,-6 -1,-2 -1,-5 -1,-7 0,-9 1,-17 2,-26 0,-3 1,-5 1,-8 0,-1 0,-2 0,-3 0,-3 1,-6 0,-9 0,0 0,0 0,-1 0,0 0,0 0,0 0,0 0,0 0,0 0,0 0,0 0,0 -3,3 -5,7 -7,10 -4,8 -7,17 -9,27 -2,10 -3,17 -3,22 0,1 0,2 -1,3 -1,1 -1,2 -2,3 -3,1 -6,1 -8,-1 -1,-1 -2,-3 -3,-6 0,-2 -1,-5 -1,-7 0,-11 2,-22 4,-33 0,-1 0,-2 0,-3 1,-6 2,-13 4,-19 0,-1 1,-3 2,-4 1,-1 2,-2 3,-2 0,0 1,0 1,0 1,0 3,0 4,1 1,0 2,1 3,2 1,2 2,4 2,6l0 0zm39 60c-1,0 -1,0 -2,0 -3,-1 -5,-3 -5,-7 0,-3 -1,-5 -1,-8 0,-4 0,-8 0,-14 2,-23 2,-39 8,-62 0,-1 1,-2 2,-4 1,-1 2,-2 3,-2 3,0 6,2 7,5 1,3 1,5 1,8 0,3 0,6 0,10 -1,12 0,4 -2,16 -1,6 -2,11 -3,17 -2,11 -3,22 -3,31 0,2 0,5 -1,7 -1,2 -2,2 -4,3l0 0zm21 -2c-2,0 -4,0 -6,-2 -1,-1 -2,-3 -2,-5 0,-2 0,-3 0,-5 0,-1 0,-1 0,-2 0,-11 2,-21 3,-32 1,-7 2,-14 4,-21 0,-1 1,-3 2,-4 1,-2 2,-2 4,-2 0,0 0,0 1,0 3,0 5,1 6,3 1,2 2,4 2,6 0,0 0,1 0,1 0,2 0,4 0,5 -1,7 -2,14 -4,21 -1,5 -2,10 -3,15 -1,5 -1,10 -1,15 0,1 0,2 -1,3 0,1 -1,2 -2,2 -1,0 -2,0 -2,1l0 0zm10 -78c-1,0 -2,0 -3,-1 -2,-1 -3,-3 -3,-6 0,-1 0,-3 1,-4 1,-2 1,-3 3,-5 1,-1 3,-2 5,-2 2,0 4,0 5,2 1,1 2,2 2,4 0,0 0,1 0,2 0,1 -1,3 -2,4 -1,2 -3,4 -5,4 -1,0 -1,0 -2,0l0 0zm24 12c1,-1 1,-2 2,-3 1,-2 2,-4 4,-5 2,-2 3,-3 5,-3 2,0 4,0 5,1 3,2 5,4 6,8 1,3 2,7 2,11 0,4 0,7 -1,11 -1,4 -2,7 -3,11 0,1 -1,3 -1,4 -1,5 -2,11 -3,16 0,1 0,1 0,2 0,1 0,2 0,3 0,1 -1,2 -1,3 -1,1 -2,1 -2,1 -1,0 -2,0 -2,-1 -1,-2 -2,-4 -3,-6 0,-2 -1,-5 -1,-7 0,-8 0,-17 2,-25 0,-3 1,-5 1,-8 0,-1 0,-2 0,-3 0,-3 1,-6 0,-9 0,0 0,0 0,-1 0,0 0,0 0,0 0,0 0,0 0,0 0,0 0,0 0,0 -3,3 -5,6 -6,10 -4,8 -7,16 -8,26 -2,9 -3,16 -3,21 0,1 0,2 -1,3 0,1 -1,2 -2,2 -3,1 -6,1 -8,-1 -1,-1 -2,-3 -2,-5 0,-2 -1,-4 -1,-7 0,-10 1,-21 3,-31 0,-1 0,-2 0,-2 1,-6 2,-12 4,-18 0,-1 1,-3 2,-4 1,-1 2,-2 3,-2 0,0 1,0 1,0 1,0 2,0 4,1 1,0 2,1 3,2 1,2 2,3 2,6l0 0zm42 58c-5,1 -9,-1 -12,-5 -3,-3 -5,-9 -5,-16 0,-1 0,-2 0,-3 0,-10 3,-21 7,-30 2,-5 6,-10 10,-14 4,-4 8,-6 13,-6 1,0 3,0 4,0 4,1 6,5 7,10 0,0 0,1 0,1 0,3 0,6 -1,8 -1,3 -2,6 -4,8 -3,4 -6,6 -9,9 -3,2 -7,5 -10,7 -1,4 -1,7 -1,11 0,5 1,8 4,9 1,0 1,0 2,0 1,0 2,0 3,-1 1,-1 2,-2 3,-3 2,-3 4,-7 5,-11 0,-1 0,-2 1,-2 0,-1 1,-1 2,-2 1,0 1,0 2,1 1,1 1,3 1,4 0,1 0,3 -1,4 0,2 -1,3 -2,5 -2,3 -4,6 -6,9 -3,3 -7,5 -10,5l0 0zm-1 -39c7,-4 12,-8 14,-12 1,-2 2,-4 3,-7 0,0 0,-1 0,-1 0,-1 0,-2 -1,-3 0,-1 -1,-1 -3,-2 0,0 0,0 0,0 -2,0 -4,2 -6,5 -3,6 -6,13 -7,19l0 0z"/>
 </g>
</svg>
